{"title":"Blade Runner 2049 2017 720p HDRip x264 titler","magnet":"magnet:?xt=urn:btih:b0892de724b5fbcd5095eb122ebbf9d35cbd76f8&dn=Blade+Runner+2049+2017+720p+HDRip+x264+titler&tr=udp%3A%2F%2Ftracker.leechers-paradise.org%3A6969&tr=udp%3A%2F%2Fzer0day.ch%3A1337&tr=udp%3A%2F%2Fopen.demonii.com%3A1337&tr=udp%3A%2F%2Ftracker.coppersurfer.tk%3A6969&tr=udp%3A%2F%2Fexodus.desync.com%3A6969","uploader":"loganxrt","categoryP":"video","categoryS":"hd___movies","size":"1956394003","seeders":"62","leechers":"170","description":"SOURCE: Blade Runner 2049 2017 1080p WEB-DL H264 AC3 - EVO\r\n\r\n <a href=\"\nhttp://www.imdb.com/title/tt1856101/\" rel=\"nofollow\" target=\"_NEW\">\nhttp://www.imdb.com/title/tt1856101/</a>\r\n <a href=\"\nhttps://www.rottentomatoes.com/m/blade_runner_2049/\" rel=\"nofollow\" target=\"_NEW\">\nhttps://www.rottentomatoes.com/m/blade_runner_2049/</a>\r\n <a href=\"\nhttps://en.wikipedia.org/wiki/Blade_Runner_2049\" rel=\"nofollow\" target=\"_NEW\">\nhttps://en.wikipedia.org/wiki/Blade_Runner_2049</a>\r\n\r\n\r\n- SAMPLE: Yes\r\n\r\n- SUBTITLE: English\r\n\r\n- LANGUAGE / AUDIO: English, Finnish, Japanese, Hungarian, Russian, Somali, Spanish\r\n\r\n\r\nMerry Christmas &amp; Happy New Year! ;)\r\n\r\n\r\nSCREENSHOTS:\r\n------------------- <a href=\"\nhttps://imgur.com/a/EPiMR\" rel=\"nofollow\" target=\"_NEW\">\nhttps://imgur.com/a/EPiMR</a>\r\n\r\n\r\nDIRECTOR: Denis Villeneuve\r\n <a href=\"\nhttp://www.imdb.com/name/nm0898288/\" rel=\"nofollow\" target=\"_NEW\">\nhttp://www.imdb.com/name/nm0898288/</a>\r\n\r\n\r\nCAST: Ryan Gosling, Dave Bautista, Robin Wright, Harrison Ford, Ana de Armas, Sylvia Hoeks, Edward James Olmos, Jared Leto, Barkhad Abdi, ...\r\n\r\n\r\nPLOT:\r\n-----------\r\nA young blade runner&apos;s discovery of a long-buried secret leads him to track down former blade runner Rick Deckard, who&apos;s been missing for thirty years. \r\n************************************\r\n\r\n- Duration:  2h 43min\r\n\r\n- Nominal bit rate: 1448 kb/s\r\n\r\n- Res: 1280 x 536\r\n\r\n- AR: 2.40:1\r\n\r\n- FPS: 23.976 FPS\r\n\r\n- Audio: AAC, 2 channels, 128 Kbps\r\n\r\n************************************\r\n\r\nGeneral\r\n-------------\r\nFormat : Matroska\r\nFormat version : Version 4 / Version 2\r\nFile size : 1.80 GiB\r\nDuration : 2h 43min\r\nOverall bit rate : 1579 kb/s\r\nEncoded date : UTC 2017-12-25 22:12:12\r\nWriting application : mkvmerge v19.0.0 (&apos;Brave Captain&apos;) 64-bit\r\nWriting library : libebml v1.3.5 + libmatroska v1.4.8\r\n\r\nVideo\r\n----------\r\nFormat : AVC\r\nFormat/Info : Advanced Video Codec\r\nFormat profile : <a href=\"/cdn-cgi/l/email-protection\" class=\"__cf_email__\" data-cfemail=\"1d55747a755d5129332c\">[email&#xA0;protected]</a>\r\nFormat settings, CABAC : Yes\r\nFormat settings, ReFrames : 5 frames\r\nCodec ID : V_MPEG4/ISO/AVC\r\nDuration : 2h 43 min\r\nBit rate : 1448 kb/s\r\nWidth : 1280 pixels\r\nHeight : 536 pixels\r\nDisplay aspect ratio : 2.40:1\r\nFrame rate mode : Constant\r\nFrame rate : 23.976 FPS\r\nColor space : YUV\r\nChroma subsampling : 4:2:0\r\nBit depth : 8 bits\r\nScan type : Progressive\r\nBits/(Pixel*Frame) : 0.088\r\nStream size : 1.65 GiB (92%)\r\nWriting library : x264 core 142\r\nEncoding settings : cabac=1 / ref=5\r\nDefault : Yes\r\nForced : No\r\n\r\n Audio\r\n----------\r\nFormat : AAC\r\nFormat/Info : Advanced Audio Codec\r\nFormat profile : LC\r\nCodec ID : A_AAC\r\nDuration : 2h 43min\r\nBit rate : 128 kb/s\r\nChannel(s) : 2 channels\r\nChannel positions : Front: L R\r\nSampling rate : 48.0 kHz\r\nCompression mode : Lossy\r\nStream size : 150 MiB (8%)\r\nTitle : Stereo\r\nLanguage : English\r\nDefault : Yes\r\nForced : No","last_updated":"2017-12-26T12:04:29.585Z","parsed":{"xt":"urn:btih:b0892de724b5fbcd5095eb122ebbf9d35cbd76f8","dn":"Blade Runner 2049 2017 720p HDRip x264 titler","tr":["udp://exodus.desync.com:6969","udp://open.demonii.com:1337","udp://tracker.coppersurfer.tk:6969","udp://tracker.leechers-paradise.org:6969","udp://zer0day.ch:1337"],"infoHash":"b0892de724b5fbcd5095eb122ebbf9d35cbd76f8","infoHashBuffer":{"type":"Buffer","data":[176,137,45,231,36,181,251,205,80,149,235,18,46,187,249,211,92,189,118,248]},"name":"Blade Runner 2049 2017 720p HDRip x264 titler","announce":["udp://exodus.desync.com:6969","udp://open.demonii.com:1337","udp://tracker.coppersurfer.tk:6969","udp://tracker.leechers-paradise.org:6969","udp://zer0day.ch:1337"],"urlList":[]}}